<?xml version="1.0" standalone="no"?>
<!DOCTYPE svg PUBLIC "-//W3C//DTD SVG 20010904//EN"
 "http://www.w3.org/TR/2001/REC-SVG-20010904/DTD/svg10.dtd">
<svg version="1.0" xmlns="http://www.w3.org/2000/svg"
 width="120.000000pt" height="120.000000pt" viewBox="0 0 120.000000 120.000000"
 preserveAspectRatio="xMidYMid meet">
<metadata>
Created by potrace 1.11, written by Peter Selinger 2001-2013
</metadata>
<g transform="translate(0.000000,120.000000) scale(0.100000,-0.100000)"
fill="#000000" stroke="none">
<path d="M508 1116 c-115 -60 -154 -98 -150 -150 2 -16 -6 -43 -16 -60 -36
-61 -54 -121 -53 -177 1 -64 -14 -83 -90 -122 -38 -19 -45 -27 -51 -62 -15
-95 -48 -186 -87 -245 -27 -41 -24 -71 13 -132 19 -32 37 -71 41 -88 4 -17 14
-34 23 -39 19 -9 450 -6 481 4 12 4 18 13 16 24 -6 32 15 47 71 50 7 1 34 22
60 47 27 25 83 71 124 102 94 70 110 88 110 121 0 21 9 32 40 50 22 12 48 33
56 47 27 40 16 189 -11 162 -5 -5 -7 -13 -21 -85 -7 -38 -27 -58 -50 -49 -13
5 -15 14 -10 41 4 19 3 35 -2 35 -8 0 -64 -93 -62 -105 2 -25 -5 -33 -38 -43
-21 -6 -57 -31 -82 -57 -58 -59 -79 -59 -141 5 -42 43 -49 57 -49 89 0 31 -6
43 -26 58 -24 18 -25 21 -11 35 11 10 30 15 56 13 66 -5 84 35 63 138 -8 40
-7 52 9 80 50 84 58 135 30 184 -12 22 -103 113 -125 125 -28 15 -92 17 -118
4z"/>
</g>
</svg>
